<svg xmlns="http://www.w3.org/2000/svg" width="18" height="25" viewBox="0 0 18 25">
  <defs>
    <style>
      .cls-1 {
        fill: #fff;
        fill-rule: evenodd;
      }
    </style>
  </defs>
  <path id="address.svg" class="cls-1" d="M359,29a8.906,8.906,0,0,0-9,8.789,8.617,8.617,0,0,0,1.343,4.621l7.145,11.243a0.755,0.755,0,0,0,.637.346h0.006a0.753,0.753,0,0,0,.637-0.356l6.962-11.352a8.621,8.621,0,0,0,1.27-4.5A8.906,8.906,0,0,0,359,29Zm6.443,12.54L359.114,51.86l-6.5-10.221a7.2,7.2,0,0,1-1.128-3.85,7.51,7.51,0,0,1,15.015,0A7.19,7.19,0,0,1,365.443,41.54ZM359,33.395a4.4,4.4,0,1,0,4.5,4.395A4.453,4.453,0,0,0,359,33.395Zm0,7.334a2.94,2.94,0,1,1,3-2.939A2.977,2.977,0,0,1,359,40.728Z" transform="translate(-350 -29)"/>
</svg>
