<svg xmlns="http://www.w3.org/2000/svg" width="50.91" height="53" viewBox="0 0 50.91 53">
  <metadata><?xpacket begin="﻿" id="W5M0MpCehiHzreSzNTczkc9d"?>
<x:xmpmeta xmlns:x="adobe:ns:meta/" x:xmptk="Adobe XMP Core 5.6-c142 79.160924, 2017/07/13-01:06:39        ">
   <rdf:RDF xmlns:rdf="http://www.w3.org/1999/02/22-rdf-syntax-ns#">
      <rdf:Description rdf:about=""/>
   </rdf:RDF>
</x:xmpmeta>
                                                                                                    
                                                                                                    
                                                                                                    
                                                                                                    
                                                                                                    
                                                                                                    
                                                                                                    
                                                                                                    
                                                                                                    
                                                                                                    
                                                                                                    
                                                                                                    
                                                                                                    
                                                                                                    
                                                                                                    
                                                                                                    
                                                                                                    
                                                                                                    
                                                                                                    
                                                                                                    
                           
<?xpacket end="w"?></metadata>
<defs>
    <style>
      .cls-1 {
        fill: #fff;
        fill-rule: evenodd;
      }
    </style>
  </defs>
  <path id="Forma_1" data-name="Forma 1" class="cls-1" d="M1100.94,3374.01h-5.98v-6a1,1,0,0,0-2,0v6h-5.99a1,1,0,0,0,0,2h5.99v6.01a1,1,0,0,0,2,0v-6.01h5.98A1,1,0,1,0,1100.94,3374.01Zm22.68,31.3-14.83-15.47a20.865,20.865,0,1,0-1.47,1.35l14.86,15.5a0.986,0.986,0,0,0,.72.31,0.968,0.968,0,0,0,.69-0.28A1,1,0,0,0,1123.62,3405.31Zm-48.63-30.3a18.965,18.965,0,1,1,18.97,19.02A19.013,19.013,0,0,1,1074.99,3375.01Z" transform="translate(-1073 -3354)"/>
</svg>
