<svg xmlns="http://www.w3.org/2000/svg" width="10" height="16" viewBox="0 0 10 16">
  <defs>
    <style>
      .cls-1 {
        fill: #1892fd;
        fill-rule: evenodd;
      }
    </style>
  </defs>
  <path id="left.svg" class="cls-1" d="M373.337,505.005l-3.82,3.982,3.82,3.983a2.432,2.432,0,0,1,0,3.338,2.2,2.2,0,0,1-3.2,0l-5.043-5.256a2.261,2.261,0,0,1-.428-0.343,2.578,2.578,0,0,1,0-3.443,2.261,2.261,0,0,1,.428-0.343l5.043-5.257a2.2,2.2,0,0,1,3.2,0A2.433,2.433,0,0,1,373.337,505.005Z" transform="translate(-364 -501)"/>
</svg>
