<svg xmlns="http://www.w3.org/2000/svg" width="59" height="59" viewBox="0 0 59 59">
  <defs>
    <style>
      .cls-1 {
        fill-rule: evenodd;
      }
    </style>
  </defs>
  <path id="logo.svg" class="cls-1" d="M407.89,128.232l-4.94,7.906a0.784,0.784,0,0,1-.068.095,5.214,5.214,0,0,1-4.278,2.015,11.924,11.924,0,0,1-3.682-.715,0.983,0.983,0,0,1,.622-1.866c2.921,0.974,4.6.793,5.772-.624l0.954-1.528-4.169-.345a0.983,0.983,0,0,1,.164-1.96l5.178,0.43,1.366-2.187-6.8-1.227a0.984,0.984,0,1,1,.35-1.936l7.573,1.367,0.268-.429a4.276,4.276,0,0,0,.834-2.428,1.56,1.56,0,0,0-1.217-1.01l-21.576-3.923a0.983,0.983,0,0,1,.352-1.935l21.634,3.933c0.036,0.007.072,0.016,0.108,0.026A3.306,3.306,0,0,1,409,124.8,6.173,6.173,0,0,1,407.89,128.232Zm-23.413-7a9.52,9.52,0,0,1,3.329.722,10.829,10.829,0,0,1,5.46,9.73c0,5.328-5.236,9.578-5.458,9.756a0.983,0.983,0,0,1-1.229-1.535c0.047-.039,4.721-3.845,4.721-8.221a8.82,8.82,0,0,0-4.373-7.97,7.93,7.93,0,0,0-2.584-.52,0.984,0.984,0,0,1-.914-1.048A1,1,0,0,1,384.477,121.231Zm-0.249,8.481a2.612,2.612,0,0,1,1.172,1.971,4.324,4.324,0,0,1-1.272,2.662l-1.251,1.393a0.984,0.984,0,0,1-1.463-1.315l1.289-1.431a2.533,2.533,0,0,0,.73-1.3,2.654,2.654,0,0,0-.449-0.453A0.984,0.984,0,0,1,384.228,129.712Zm-6.747,22.716a0.972,0.972,0,0,1-.515.147,0.984,0.984,0,0,1-.838-0.467,3.341,3.341,0,0,1-.562-1.742,2.938,2.938,0,0,1,.232-1.105,0.983,0.983,0,1,1,1.821.741,1.036,1.036,0,0,0-.086.364,1.436,1.436,0,0,0,.268.709A0.983,0.983,0,0,1,377.481,152.428Zm4.969-26.645a3.649,3.649,0,0,1-1.967,3.416v7.977l5.612,5.612a11.783,11.783,0,0,1,3.238,7.578c0,3.835-3.166,6.54-3.3,6.654l-6.02,6.024,3.027,2.269c1.034,0.89,2.377,2.747,1.177,4.331a2.183,2.183,0,0,1-1.828.851,5.516,5.516,0,0,1-1.906-.431v0.952a0.983,0.983,0,1,1-1.966,0v-1.85l-0.248-.124-0.192-.1c-2-1-4.477-2.239-4.477-5.8a8.5,8.5,0,0,1,2.255-5.612l2.662-3.2V147.3l-7.5-6c-0.216-.173-5.286-4.29-5.286-9.618a10.83,10.83,0,0,1,5.461-9.73,10.975,10.975,0,0,1,4.363-.761,12.254,12.254,0,0,1,2.96.33v-2.805a2.949,2.949,0,1,1,1.966,0v3.609A3.908,3.908,0,0,1,382.45,125.783Zm-2.95-10.816a0.983,0.983,0,1,0,.983.983A0.984,0.984,0,0,0,379.5,114.967Zm-3.943,8.191a9.316,9.316,0,0,0-3.484.555,8.82,8.82,0,0,0-4.373,7.97c0,4.375,4.5,8.047,4.548,8.083l9.833,7.866a0.92,0.92,0,0,1,.081.073,3.422,3.422,0,0,1,0,5.323l-4.857,5.834a6.647,6.647,0,0,0-1.738,4.288c0,2.229,1.288,2.986,3.389,4.036l0.194,0.1a10.034,10.034,0,0,0,3.239,1.246,0.281,0.281,0,0,0,.261-0.073c0.285-.376-0.487-1.3-0.842-1.612l-3.882-2.908a0.982,0.982,0,0,1-.1-1.481l6.884-6.884c0.086-.079,2.661-2.3,2.662-5.2a9.853,9.853,0,0,0-2.662-6.188l-5.838-5.837a1.031,1.031,0,0,1-.1-0.105l-3.891-3.891a4.324,4.324,0,0,1-1.272-2.662c0-1.476,1.921-2.552,2.511-2.847a13.338,13.338,0,0,1,1.726-.668c1.88-.626,2.646-1.017,2.646-2.385C380.483,123.347,376.713,123.158,375.557,123.158Zm4.926,25.714v3.106l0.228-.274a2.569,2.569,0,0,0,.755-1.338,2.4,2.4,0,0,0-.663-1.238Zm-1.966-13.663v-5.194l-0.058.02a11.455,11.455,0,0,0-1.47.561,3.7,3.7,0,0,0-1.427,1.13,2.542,2.542,0,0,0,.7,1.231Zm-1.938-8.443a0.983,0.983,0,1,1-.009-1.966h0.009A0.983,0.983,0,1,1,376.579,126.766Zm-1.82-6.9-21.575,3.923a1.56,1.56,0,0,0-1.218,1.01,4.358,4.358,0,0,0,.857,2.467l0.245,0.39,7.573-1.367a0.984,0.984,0,1,1,.35,1.936l-6.8,1.227,1.366,2.187,5.179-.43a0.983,0.983,0,1,1,.163,1.96l-4.168.346,0.953,1.527c1.175,1.417,2.853,1.6,5.773.624a0.983,0.983,0,1,1,.621,1.866,11.888,11.888,0,0,1-3.681.715,5.216,5.216,0,0,1-4.279-2.015,0.955,0.955,0,0,1-.068-0.095l-4.917-7.867A6.247,6.247,0,0,1,350,124.8a3.306,3.306,0,0,1,2.666-2.909c0.036-.01.071-0.019,0.108-0.026l21.633-3.933A0.983,0.983,0,1,1,374.759,119.867Zm-2,25.347a0.984,0.984,0,0,1,.238,1.37,6.615,6.615,0,0,0-1.363,3.782,7.71,7.71,0,0,0,2.344,4.985,0.983,0.983,0,0,1-1.435,1.344,9.6,9.6,0,0,1-2.876-6.329,8.544,8.544,0,0,1,1.721-4.915A0.984,0.984,0,0,1,372.758,145.214Zm10.79,18.4a20.018,20.018,0,0,0,0-1.878,0.976,0.976,0,0,1,1.31-.448,1.635,1.635,0,0,1,.968,1.367,1.523,1.523,0,0,1-.945,1.365A0.985,0.985,0,0,1,383.548,163.612Z" transform="translate(-350 -113)"/>
</svg>
