<svg xmlns="http://www.w3.org/2000/svg" width="18.813" height="21.53" viewBox="0 0 18.813 21.53">
  <defs>
    <style>
      .cls-1 {
        fill-rule: evenodd;
      }
    </style>
  </defs>
  <path id="man.svg" class="cls-1" d="M447.605,2332.59a0.644,0.644,0,0,1-.239.28,19.854,19.854,0,0,1-17.893,0,0.617,0.617,0,0,1-.238-0.28,6.692,6.692,0,0,1-.234-2.02v-0.01a0.886,0.886,0,0,0,0-.12c0.027-.87.087-2.94,2.076-3.6,0.014,0,.027-0.01.046-0.01a12.915,12.915,0,0,0,3.8-1.69,0.634,0.634,0,0,1,.862.15,0.593,0.593,0,0,1-.152.84,14.527,14.527,0,0,1-4.184,1.86c-1.068.37-1.187,1.48-1.219,2.49,0,0.04,0,.08,0,0.11a7.555,7.555,0,0,0,.1,1.38,18.766,18.766,0,0,0,16.166,0,7.839,7.839,0,0,0,.1-1.37,0.81,0.81,0,0,1,0-.11c-0.032-1.02-.151-2.13-1.219-2.5a14.215,14.215,0,0,1-4.184-1.86,0.591,0.591,0,0,1-.152-0.84,0.632,0.632,0,0,1,.862-0.14,13.472,13.472,0,0,0,3.8,1.68c0.014,0.01.032,0.01,0.046,0.02,1.989,0.65,2.049,2.72,2.076,3.6,0,0.04,0,.08,0,0.11v0.01A7.007,7.007,0,0,1,447.605,2332.59Zm-9.126-7.51h-0.146a4.29,4.29,0,0,1-3.227-1.36c-1.764-1.94-1.471-5.25-1.439-5.57a4.535,4.535,0,0,1,2.25-4.06,5.224,5.224,0,0,1,2.466-.61h0.078a5.2,5.2,0,0,1,2.466.63,4.53,4.53,0,0,1,2.223,4.04c0.032,0.32.325,3.63-1.439,5.57A4.307,4.307,0,0,1,438.479,2325.08Zm3.442-6.82a0.078,0.078,0,0,1,0-.03c-0.142-3.02-2.246-3.51-3.484-3.54h-0.055c-1,0-3.332.34-3.483,3.54,0,0.01,0,.02,0,0.03,0,0.03-.317,3.07,1.136,4.66a3.047,3.047,0,0,0,2.356.95h0.046a3.055,3.055,0,0,0,2.36-.95C442.247,2321.32,441.926,2318.29,441.921,2318.26Z" transform="translate(-429 -2313.47)"/>
</svg>
