<svg xmlns="http://www.w3.org/2000/svg" width="21.094" height="20.78" viewBox="0 0 21.094 20.78">
  <defs>
    <style>
      .cls-1 {
        fill-rule: evenodd;
      }
    </style>
  </defs>
  <path id="phone1.svg" class="cls-1" d="M829.434,2328.31l-2.621-2.59a1.88,1.88,0,0,0-2.622,0L823,2326.9a1.42,1.42,0,0,1-1.986,0l-5.164-5.1a1.36,1.36,0,0,1,0-1.95c0.191-.19.743-0.73,1.191-1.18a1.8,1.8,0,0,0,0-2.58l-2.62-2.57a1.878,1.878,0,0,0-2.62,0c-0.539.52-.713,0.69-0.955,0.93a6.521,6.521,0,0,0,0,9.31l8.183,8.07a6.758,6.758,0,0,0,9.452,0l0.954-.94A1.807,1.807,0,0,0,829.434,2328.31Zm-16.762-13.93a0.622,0.622,0,0,1,.875,0l2.62,2.57a0.6,0.6,0,0,1,0,.86l-0.437.43-3.492-3.44Zm7.23,16.59-8.183-8.07a5.292,5.292,0,0,1-.341-7.22l3.483,3.43a2.562,2.562,0,0,0,.115,3.55l5.164,5.1h0a2.675,2.675,0,0,0,3.61.11l3.483,3.43A5.478,5.478,0,0,1,819.9,2330.97Zm8.658-.94-0.437.43-3.5-3.45,0.437-.43a0.64,0.64,0,0,1,.874,0l2.621,2.59A0.6,0.6,0,0,1,828.56,2330.03Z" transform="translate(-808.906 -2313)"/>
</svg>
