<svg xmlns="http://www.w3.org/2000/svg" width="24" height="24" viewBox="0 0 24 24">
  <defs>
    <style>
      .cls-1 {
        fill: #fff;
        fill-rule: evenodd;
      }
    </style>
  </defs>
  <path id="Phone.svg" class="cls-1" d="M763.378,46.694l-2.984-2.985a2.115,2.115,0,0,0-2.984,0l-1.356,1.357a1.6,1.6,0,0,1-2.261,0l-5.879-5.884a1.6,1.6,0,0,1,0-2.261l1.356-1.356a2.111,2.111,0,0,0,0-2.986l-2.984-2.974a2.112,2.112,0,0,0-2.982,0l-1.087,1.078a7.618,7.618,0,0,0,0,10.762l9.315,9.321a7.6,7.6,0,0,0,10.761,0l1.085-1.085A2.113,2.113,0,0,0,763.378,46.694ZM744.3,30.6a0.7,0.7,0,0,1,1,0l2.984,2.975a0.7,0.7,0,0,1,0,.994l-0.5.5L743.8,31.092Zm8.23,19.169-9.315-9.321a6.184,6.184,0,0,1-.388-8.346l3.964,3.966a3,3,0,0,0,.131,4.108l5.879,5.885h0a3,3,0,0,0,4.11.13l3.965,3.965A6.173,6.173,0,0,1,752.527,49.77Zm9.857-1.086-0.5.5L757.908,45.2l0.5-.5a0.7,0.7,0,0,1,1,0l2.984,2.984A0.7,0.7,0,0,1,762.384,48.684Z" transform="translate(-740 -29)"/>
</svg>
