<svg xmlns="http://www.w3.org/2000/svg" width="10" height="16" viewBox="0 0 10 16">
  <defs>
    <style>
      .cls-1 {
        fill: #1892fd;
        fill-rule: evenodd;
      }
    </style>
  </defs>
  <path id="right.svg" class="cls-1" d="M1554.34,510.709a2.64,2.64,0,0,1-.43.343l-5.06,5.256a2.208,2.208,0,0,1-3.21,0,2.42,2.42,0,0,1,0-3.338l3.83-3.983-3.83-3.982a2.422,2.422,0,0,1,0-3.339,2.208,2.208,0,0,1,3.21,0l5.06,5.257a2.64,2.64,0,0,1,.43.343A2.575,2.575,0,0,1,1554.34,510.709Z" transform="translate(-1545 -501)"/>
</svg>
