<svg xmlns="http://www.w3.org/2000/svg" width="42" height="42" viewBox="0 0 42 42">
  <defs>
    <style>
      .cls-1 {
        fill: #fff;
        fill-rule: evenodd;
      }
    </style>
  </defs>
  <path id="social-3.svg" class="cls-1" d="M1516,4986a21,21,0,1,1-21-21,21,21,0,0,1,21,21h0Zm0,0-21.8,9.21h1.65a1.415,1.415,0,0,0,.75-0.33,1.164,1.164,0,0,0,.23-0.72s-0.03-2.22.99-2.54,2.31,2.14,3.69,3.08a2.6,2.6,0,0,0,1.84.56l3.68-.05s1.92-.12,1.01-1.63a12.1,12.1,0,0,0-2.74-3.17c-2.31-2.14-2-1.8.78-5.51,1.7-2.25,2.37-3.63,2.16-4.22-0.2-.56-1.44-0.41-1.44-0.41l-4.15.02a1,1,0,0,0-.54.09,1.2,1.2,0,0,0-.36.45,24.334,24.334,0,0,1-1.53,3.23c-1.85,3.14-2.59,3.3-2.89,3.11-0.7-.46-0.53-1.82-0.53-2.8,0-3.04.46-4.3-.89-4.63a7.059,7.059,0,0,0-1.94-.19,8.8,8.8,0,0,0-3.44.35c-0.47.23-.83,0.75-0.61,0.78a1.814,1.814,0,0,1,1.22.61,3.951,3.951,0,0,1,.41,1.88s0.25,3.57-.57,4.02c-0.56.3-1.32-.32-2.97-3.16a27.284,27.284,0,0,1-1.48-3.07,1.2,1.2,0,0,0-.34-0.46,1.684,1.684,0,0,0-.64-0.26l-3.94.03a1.32,1.32,0,0,0-.81.27,0.86,0.86,0,0,0-.01.7s3.08,7.22,6.57,10.85a9.46,9.46,0,0,0,6.84,3.12h0Zm0,0" transform="translate(-1474 -4965)"/>
</svg>
