<svg xmlns="http://www.w3.org/2000/svg" width="41" height="41.03" viewBox="0 0 41 41.03">
  <defs>
    <style>
      .cls-1 {
        fill: #fff;
        fill-rule: evenodd;
      }
    </style>
  </defs>
  <path id="social-2.svg" class="cls-1" d="M1440.5,4965.02a20.449,20.449,0,0,0-19.5,20.39,20.109,20.109,0,0,0,2.23,9.18l-2.17,10.49a0.793,0.793,0,0,0,.96.93l10.35-2.44A20.4,20.4,0,1,0,1440.5,4965.02Zm12.35,31.6a16.164,16.164,0,0,1-18.49,3l-1.44-.71-6.35,1.49,1.33-6.44-0.71-1.38a15.873,15.873,0,0,1,2.96-18.5,16.152,16.152,0,0,1,11.35-4.66,15.99,15.99,0,0,1,11.35,4.66A15.862,15.862,0,0,1,1452.85,4996.62Zm-1.4-6.86-3.97-1.13a1.487,1.487,0,0,0-1.46.38l-0.98.99a1.451,1.451,0,0,1-1.57.32,21.125,21.125,0,0,1-6.84-5.98,1.424,1.424,0,0,1,.12-1.59l0.84-1.09a1.441,1.441,0,0,0,.19-1.49l-1.67-3.75a1.5,1.5,0,0,0-2.32-.53c-1.1.93-2.42,2.34-2.58,3.91-0.28,2.76.91,6.24,5.42,10.42,5.22,4.83,9.39,5.47,12.11,4.82,1.54-.37,2.77-1.86,3.55-3.08A1.465,1.465,0,0,0,1451.45,4989.76Z" transform="translate(-1421 -4965)"/>
</svg>
