<svg xmlns="http://www.w3.org/2000/svg" width="42" height="42" viewBox="0 0 42 42">
  <defs>
    <style>
      .cls-1 {
        fill: #fff;
        fill-rule: evenodd;
      }
    </style>
  </defs>
  <path id="social-1.svg" class="cls-1" d="M1389.02,4986a4.02,4.02,0,1,1-4.02-4.02,4.02,4.02,0,0,1,4.02,4.02h0Zm0,0,5.38-7.11a3.957,3.957,0,0,0-2.29-2.29,6.629,6.629,0,0,0-2.24-.42c-1.27-.05-1.65-0.07-4.87-0.07s-3.6.02-4.87,0.07a6.629,6.629,0,0,0-2.24.42,3.957,3.957,0,0,0-2.29,2.29,6.629,6.629,0,0,0-.42,2.24c-0.05,1.27-.07,1.65-0.07,4.87s0.02,3.6.07,4.87a6.629,6.629,0,0,0,.42,2.24,3.957,3.957,0,0,0,2.29,2.29,6.629,6.629,0,0,0,2.24.42c1.27,0.05,1.65.07,4.87,0.07s3.6-.02,4.87-0.07a6.629,6.629,0,0,0,2.24-.42,4.032,4.032,0,0,0,2.29-2.29,6.629,6.629,0,0,0,.42-2.24c0.05-1.27.07-1.65,0.07-4.87s-0.02-3.6-.07-4.87a6.629,6.629,0,0,0-.42-2.24h0Zm-9.4,13.3a6.19,6.19,0,1,1,6.19-6.19,6.188,6.188,0,0,1-6.19,6.19h0Zm6.44-11.18a1.445,1.445,0,1,1,0-2.89,1.445,1.445,0,0,1,0,2.89h0Zm0,0M1385,4965a21,21,0,1,0,21,21,21,21,0,0,0-21-21h0Zm11.99,25.97a9.161,9.161,0,0,1-.56,2.93,6.2,6.2,0,0,1-3.53,3.53,9.1,9.1,0,0,1-2.93.56c-1.28.05-1.69,0.07-4.97,0.07s-3.69-.02-4.97-0.07a9.161,9.161,0,0,1-2.93-.56,6.293,6.293,0,0,1-3.53-3.53,9.161,9.161,0,0,1-.56-2.93c-0.05-1.28-.07-1.7-0.07-4.97s0.02-3.69.07-4.97a9.1,9.1,0,0,1,.56-2.93,6.293,6.293,0,0,1,3.53-3.53,9.1,9.1,0,0,1,2.93-.56c1.28-.05,1.7-0.07,4.97-0.07s3.69,0.02,4.97.07a9.1,9.1,0,0,1,2.93.56,6.293,6.293,0,0,1,3.53,3.53,9.1,9.1,0,0,1,.56,2.93c0.05,1.28.07,1.69,0.07,4.97s-0.02,3.69-.07,4.97h0Zm0,0" transform="translate(-1364 -4965)"/>
</svg>
