<svg xmlns="http://www.w3.org/2000/svg" width="34.03" height="33.031" viewBox="0 0 34.03 33.031">
  <defs>
    <style>
      .cls-1 {
        fill: #3d3938;
        fill-rule: evenodd;
      }
    </style>
  </defs>
  <path id="tel.svg" class="cls-1" d="M1294.49,37.332a0.831,0.831,0,0,0-.1.329,0.794,0.794,0,0,0,.72.855,0.8,0.8,0,0,0,.86-0.723,1.337,1.337,0,0,1,.04-0.362V37.069a8.593,8.593,0,0,0-.47-2.763,8.284,8.284,0,0,0-1.91-3.026,8.442,8.442,0,0,0-3.71-2.138,8.807,8.807,0,0,0-2.08-.263,5.725,5.725,0,0,0-.73.033l-0.69.1a0.768,0.768,0,1,0,.26,1.513,3.368,3.368,0,0,1,.56-0.066h0.1c0.17,0,.33-0.033.5-0.033a6.544,6.544,0,0,1,4.69,1.941,6.649,6.649,0,0,1,1.96,4.6v0.362Zm4.36,0.724a0.8,0.8,0,0,0,1.59.131c0.03-.362.03-0.723,0.03-1.085a14.545,14.545,0,0,0-.17-2.1,12.635,12.635,0,0,0-11.47-10.459c-0.33-.033-0.69-0.033-1.02-0.033-0.37,0-.73,0-1.09.033s-0.73.066-1.1,0.131a0.769,0.769,0,0,0,.27,1.514c0.23-.033.43-0.066,0.66-0.1,0.1,0,.2-0.033.3-0.033,0.33-.033.66-0.033,0.96-0.033a11.407,11.407,0,0,1,3.2.461,11.008,11.008,0,0,1,4.67,2.763,11.546,11.546,0,0,1,2.48,3.717,11.187,11.187,0,0,1,.79,4.079v0.329A2.521,2.521,0,0,0,1298.85,38.056Zm1.12-13.025A17.209,17.209,0,0,0,1287.77,20c-0.49,0-.99.033-1.48,0.066a11.329,11.329,0,0,0-1.49.2,0.768,0.768,0,1,0,.26,1.513c0.23-.033.43-0.066,0.66-0.1a5.183,5.183,0,0,1,.7-0.066c0.46-.033.89-0.066,1.35-0.066a15.746,15.746,0,0,1,11.05,4.539,15.44,15.44,0,0,1,4.56,10.986v0.724c0,0.2-.03.394-0.03,0.625a0.794,0.794,0,0,0,.72.855,0.8,0.8,0,0,0,.86-0.723c0.04-.493.07-0.987,0.07-1.447A16.981,16.981,0,0,0,1299.97,25.031Zm3.81,19.932-5.86-3.124c-1.95-1.053-2.01-.362-4.06,1.809-0.5.526-1.42,1.908-2.52,1.645-2.28-.559-6.54-3.881-7.93-5.394-0.66-.723-3.51-4.177-3.54-5.3-0.06-1.71,3.7-2.565,2.48-5.822l-2.61-5.821c-2.45-5.592-9.29,3.355-8.73,7.532,1.46,10.295,19.61,26.938,29.72,21.445C1302.98,50.686,1306.02,46.312,1303.78,44.963Z" transform="translate(-1270.97 -20)"/>
</svg>
